<svg width="50" height="48" viewBox="0 0 50 48" fill="none" xmlns="http://www.w3.org/2000/svg">
<path d="M19 16H30V45H19V16Z" fill="#D9D9D9"/>
<path d="M19 16H30V45H19V16Z" fill="#2D6ADD"/>
<mask id="mask0_3583_356874" style="mask-type:alpha" maskUnits="userSpaceOnUse" x="19" y="16" width="11" height="29">
<path d="M19 16H30V45H19V16Z" fill="#D9D9D9"/>
<path d="M19 16H30V45H19V16Z" fill="#2D6ADD"/>
</mask>
<g mask="url(#mask0_3583_356874)">
<g opacity="0.8" filter="url(#filter0_f_3583_356874)">
<rect x="3" y="5" width="44" height="33" rx="3" fill="#0C4CC7" fill-opacity="0.5"/>
</g>
</g>
<rect x="11" y="42" width="28" height="4" rx="1" fill="#3B7EFF"/>
<g filter="url(#filter1_d_3583_356874)">
<rect x="3" y="3" width="44" height="33" rx="3" fill="#9FC0FF"/>
</g>
<mask id="mask1_3583_356874" style="mask-type:alpha" maskUnits="userSpaceOnUse" x="3" y="3" width="44" height="33">
<rect x="3" y="3" width="44" height="33" rx="3" fill="#9FC0FF"/>
</mask>
<g mask="url(#mask1_3583_356874)">
<g opacity="0.8" filter="url(#filter2_f_3583_356874)">
<path d="M6 16H43V45H6V16Z" fill="url(#paint0_linear_3583_356874)"/>
</g>
</g>
<g filter="url(#filter3_i_3583_356874)">
<rect x="3" y="3" width="44" height="33" rx="3" fill="white" fill-opacity="0.01"/>
</g>
<path d="M33.8571 28.8462L31.1788 23.8539L29.0675 19.9187L26.4286 15M28.1429 28.8462L35.5714 15M28.7143 27.1154C28.7143 28.7085 27.4351 30 25.8571 30C24.2792 30 23 28.7085 23 27.1154C23 25.5223 24.2792 24.2308 25.8571 24.2308C27.4351 24.2308 28.7143 25.5223 28.7143 27.1154ZM39 27.1154C39 28.7085 37.7208 30 36.1429 30C34.5649 30 33.2857 28.7085 33.2857 27.1154C33.2857 25.5223 34.5649 24.2308 36.1429 24.2308C37.7208 24.2308 39 25.5223 39 27.1154Z" stroke="#F5F5F5" stroke-width="2"/>
<path d="M14 15H16V18H14V15Z" fill="#F5F5F5"/>
<path d="M14 21H16V24H14V21Z" fill="#F5F5F5"/>
<path d="M14 29L14 27L17 27L17 29L14 29Z" fill="#F5F5F5"/>
<rect x="31" y="9" width="2" height="3" fill="#F5F5F5"/>
<path d="M14 9H16V12H14V9Z" fill="#F5F5F5"/>
<path d="M19 9H22V11H19V9Z" fill="#F5F5F5"/>
<path d="M25 9H28V11H25V9Z" fill="#F5F5F5"/>
<defs>
<filter id="filter0_f_3583_356874" x="-1" y="1" width="52" height="41" filterUnits="userSpaceOnUse" color-interpolation-filters="sRGB">
<feFlood flood-opacity="0" result="BackgroundImageFix"/>
<feBlend mode="normal" in="SourceGraphic" in2="BackgroundImageFix" result="shape"/>
<feGaussianBlur stdDeviation="2" result="effect1_foregroundBlur_3583_356874"/>
</filter>
<filter id="filter1_d_3583_356874" x="0" y="0" width="50" height="39" filterUnits="userSpaceOnUse" color-interpolation-filters="sRGB">
<feFlood flood-opacity="0" result="BackgroundImageFix"/>
<feColorMatrix in="SourceAlpha" type="matrix" values="0 0 0 0 0 0 0 0 0 0 0 0 0 0 0 0 0 0 127 0" result="hardAlpha"/>
<feOffset/>
<feGaussianBlur stdDeviation="1.5"/>
<feComposite in2="hardAlpha" operator="out"/>
<feColorMatrix type="matrix" values="0 0 0 0 0 0 0 0 0 0 0 0 0 0 0 0 0 0 0.15 0"/>
<feBlend mode="normal" in2="BackgroundImageFix" result="effect1_dropShadow_3583_356874"/>
<feBlend mode="normal" in="SourceGraphic" in2="effect1_dropShadow_3583_356874" result="shape"/>
</filter>
<filter id="filter2_f_3583_356874" x="-4" y="6" width="57" height="49" filterUnits="userSpaceOnUse" color-interpolation-filters="sRGB">
<feFlood flood-opacity="0" result="BackgroundImageFix"/>
<feBlend mode="normal" in="SourceGraphic" in2="BackgroundImageFix" result="shape"/>
<feGaussianBlur stdDeviation="5" result="effect1_foregroundBlur_3583_356874"/>
</filter>
<filter id="filter3_i_3583_356874" x="3" y="3" width="44" height="33" filterUnits="userSpaceOnUse" color-interpolation-filters="sRGB">
<feFlood flood-opacity="0" result="BackgroundImageFix"/>
<feBlend mode="normal" in="SourceGraphic" in2="BackgroundImageFix" result="shape"/>
<feColorMatrix in="SourceAlpha" type="matrix" values="0 0 0 0 0 0 0 0 0 0 0 0 0 0 0 0 0 0 127 0" result="hardAlpha"/>
<feOffset/>
<feGaussianBlur stdDeviation="2"/>
<feComposite in2="hardAlpha" operator="arithmetic" k2="-1" k3="1"/>
<feColorMatrix type="matrix" values="0 0 0 0 0.738021 0 0 0 0 0.905687 0 0 0 0 1 0 0 0 1 0"/>
<feBlend mode="normal" in2="shape" result="effect1_innerShadow_3583_356874"/>
</filter>
<linearGradient id="paint0_linear_3583_356874" x1="26.1818" y1="33.4" x2="35.9676" y2="49.0381" gradientUnits="userSpaceOnUse">
<stop stop-color="#0058FF" stop-opacity="0.5"/>
<stop offset="1" stop-color="#085DFF"/>
</linearGradient>
</defs>
</svg>
